<svg width="773" height="192" viewBox="0 0 773 192" fill="none" xmlns="http://www.w3.org/2000/svg">
<path d="M659.854 144.205V53H725V66.0293H685.912V92.0878H725V105.117H685.912V131.176H725V144.205H659.854Z" fill="#F16621"/>
<path d="M617.118 66.0293H591.059V131.176H617.118V66.0293ZM565.001 144.205V53H630.147V66.0293H643.176V131.176H630.147V144.205H565.001Z" fill="#01A3DE"/>
<path d="M522.265 66.0293H496.206V131.176H522.265V66.0293ZM483.177 131.176H470.148V66.0293H483.177V53H535.294V66.0293H548.323V131.176H535.294V144.205H483.177V131.176Z" fill="#F9CC14"/>
<path d="M427.412 118.146H453.47V131.176H440.441V144.205H388.324V131.176H375.295V66.0293H388.324V53H440.441V66.0293H453.47V79.0585H427.412V66.0293H401.353V131.176H427.412V118.146Z" fill="#EE3E34"/>
<path d="M332.559 66.0293H306.5V131.176H332.559V66.0293ZM293.471 131.176H280.442V66.0293H293.471V53H345.588V66.0293H358.617V131.176H345.588V144.205H293.471V131.176Z" fill="#33AF43"/>
<path d="M237.706 66.0293H211.647V131.176H237.706V66.0293ZM185.589 144.205V53H250.735V66.0293H263.764V131.176H250.735V144.205H185.589Z" fill="#33AF43"/>
<path d="M142.853 144.205V53H168.912V144.205H142.853Z" fill="#33AF43"/>
<path d="M74.0585 144.205H48V53H74.0585V92.0878H87.0878V79.0585H100.117V53H126.176V79.0585H113.146V92.0878H100.117V105.117H113.146V118.146H126.176V144.205H100.117V118.146H87.0878V105.117H74.0585V144.205Z" fill="#33AF43"/>
</svg>
