<svg width="143" height="36" viewBox="0 0 143 36" fill="none" xmlns="http://www.w3.org/2000/svg">
<path d="M122.069 27.0384V9.9375H134.12V12.3805H126.889V17.2665H134.12V19.7094H126.889V24.5955H134.12V27.0384H122.069Z" fill="#F16621"/>
<path d="M114.163 12.3805H109.342V24.5955H114.163V12.3805ZM104.522 27.0384V9.9375H116.573V12.3805H118.983V24.5955H116.573V27.0384H104.522Z" fill="#01A3DE"/>
<path d="M96.6156 12.3805H91.7949V24.5955H96.6156V12.3805ZM89.3846 24.5955H86.9743V12.3805H89.3846V9.9375H99.0259V12.3805H101.436V24.5955H99.0259V27.0384H89.3846V24.5955Z" fill="#F9CC14"/>
<path d="M79.0684 22.1524H83.889V24.5955H81.4787V27.0384H71.8374V24.5955H69.4271V12.3805H71.8374V9.9375H81.4787V12.3805H83.889V14.8235H79.0684V12.3805H74.2477V24.5955H79.0684V22.1524Z" fill="#EE3E34"/>
<path d="M61.5212 12.3805H56.7005V24.5955H61.5212V12.3805ZM54.2902 24.5955H51.8799V12.3805H54.2902V9.9375H63.9315V12.3805H66.3418V24.5955H63.9315V27.0384H54.2902V24.5955Z" fill="#33AF43"/>
<path d="M43.9741 12.3805H39.1533V24.5955H43.9741V12.3805ZM34.3328 27.0384V9.9375H46.3844V12.3805H48.7946V24.5955H46.3844V27.0384H34.3328Z" fill="#33AF43"/>
<path d="M26.4269 27.0384V9.9375H31.2476V27.0384H26.4269Z" fill="#33AF43"/>
<path d="M13.7003 27.0384H8.87969V9.9375H13.7003V17.2665H16.1107V14.8235H18.521V9.9375H23.3417V14.8235H20.9313V17.2665H18.521V19.7094H20.9313V22.1524H23.3417V27.0384H18.521V22.1524H16.1107V19.7094H13.7003V27.0384Z" fill="#33AF43"/>
</svg>
