<svg width="298" height="363" viewBox="0 0 298 363" fill="none" xmlns="http://www.w3.org/2000/svg">
<path d="M297.035 212.444C305.44 259.702 224.136 362.772 145.272 362.772C66.4085 362.772 -6.49233 260.514 11.4445 212.444C25.9103 173.676 2.11057 97.9728 64.2705 60.5506C103.427 70.1201 191.42 18.5239 243.384 60.5506C263.787 77.0517 293.168 190.697 297.035 212.444Z" fill="#4F4F4F"/>
<path fill-rule="evenodd" clip-rule="evenodd" d="M69.8919 30.0573C71.8369 13.9501 103.021 0 141.205 0C175.604 0 205.572 10.7048 212.667 24.5686C214.204 24.4223 215.776 24.3469 217.377 24.3469C234.857 24.3469 248.216 33.3458 248.216 45.4477C248.216 51.9766 245.982 57.3662 241.178 60.9455C243.123 66.636 244.156 72.5909 244.156 78.7223C244.156 119.062 199.463 151.764 144.333 151.764C89.2018 151.764 44.5095 119.062 44.5095 78.7223C44.5095 74.4385 45.0135 70.2408 45.9805 66.1593C39.4231 62.4411 35.584 56.7262 35.584 50.3172C35.584 39.1118 43.2622 29.2164 60.7427 29.2164C63.7956 29.2164 66.8714 29.5182 69.8689 30.0761C69.8765 30.0699 69.8842 30.0636 69.8919 30.0573Z" fill="#4F4F4F"/>
<path d="M98.0066 151.775L97.8012 150.83C96.1479 143.225 100.864 135.689 108.427 133.851C118.071 131.508 127.122 139.435 126.07 149.304L125.566 154.037C125.109 158.325 126.234 162.632 128.729 166.148L139.844 181.809C141.701 184.426 144.385 186.342 147.464 187.248C152.95 188.861 158.87 187.049 162.511 182.64L166.488 177.827C170.004 173.57 171.928 168.221 171.928 162.7V154.042C171.928 144.564 179.324 136.733 188.786 136.192C195.813 135.791 202.421 139.549 205.668 145.793L207.324 148.978C209.636 153.423 210.461 158.492 209.68 163.441L209.596 163.974C208.847 168.719 206.75 173.149 203.555 176.736L170.307 214.067C165.024 219.998 158.037 224.151 150.302 225.955C142.213 227.843 133.73 227.064 126.119 223.734L123.619 222.64C115.929 219.276 109.288 213.903 104.393 207.085L101.147 202.564C93.6022 192.054 91.5039 178.584 95.4951 166.278L97.6088 159.761C98.4455 157.181 98.5828 154.425 98.0066 151.775Z" fill="#656565"/>
<ellipse cx="154.073" cy="108.751" rx="36.5207" ry="60.8677" fill="white"/>
<circle cx="158.13" cy="98.1996" r="19.4777" fill="black"/>
<circle cx="154.882" cy="146.894" r="19.4777" fill="black"/>
<path d="M116.74 66.5488C116.74 73.2721 111.569 77.9108 106.19 77.9108C100.811 77.9108 95.6396 73.2721 95.6396 66.5488C95.6396 59.8256 100.811 53.5637 106.19 53.5637C111.569 53.5637 116.74 59.8256 116.74 66.5488Z" fill="black"/>
<path d="M204.387 66.5488C204.387 73.2721 199.215 77.9108 193.837 77.9108C188.458 77.9108 183.286 72.4605 183.286 65.7373C183.286 59.014 188.458 53.5637 193.837 53.5637C199.215 53.5637 204.387 59.8256 204.387 66.5488Z" fill="black"/>
<path d="M139.462 145.271L135.404 146.894C135.505 150.856 136.855 157.66 139.462 159.879C141.963 162.868 144.156 163.918 148.389 165.56C157.208 168.055 158.863 167.454 167.867 162.314C169.778 160.271 173.346 155.483 174.13 151.763L175.171 146.894L174.13 143.648L172.896 147.06H167.958L163.637 154.566L154.996 151.154L146.971 154.566L144.502 151.154L140.182 154.566L139.462 145.271Z" fill="white"/>
<circle cx="110.246" cy="61.6794" r="4.05785" fill="white"/>
<circle cx="197.899" cy="61.6794" r="4.05785" fill="white"/>
</svg>
